<svg width="306" height="192" viewBox="0 0 306 192" fill="none" xmlns="http://www.w3.org/2000/svg">
<g clip-path="url(#clip0_2_176)">
<path d="M152.679 191.36C205.469 191.36 248.264 148.666 248.264 96.0001C248.264 43.3343 205.469 0.640137 152.679 0.640137C99.8892 0.640137 57.0944 43.3343 57.0944 96.0001C57.0944 148.666 99.8892 191.36 152.679 191.36Z" stroke="#574B4B" stroke-width="2"/>
<path d="M152.679 152.32V39.6802" stroke="#574B4B" stroke-width="2"/>
<path d="M175.132 54.7202H142.255C130.829 54.7202 121.566 63.961 121.566 75.3602C121.566 86.7593 130.829 96.0002 142.255 96.0002H161.019C172.356 96.0002 181.547 105.169 181.547 116.48C181.547 127.791 172.356 136.96 161.019 136.96H127.981" stroke="#574B4B" stroke-width="2"/>
</g>
<defs>
<clipPath id="clip0_2_176">
<rect width="306" height="192" fill="white"/>
</clipPath>
</defs>
</svg>
