<svg width="306" height="192" viewBox="0 0 306 192" fill="none" xmlns="http://www.w3.org/2000/svg">
<g clip-path="url(#clip0_2_157)">
<path d="M152.679 191.36C205.469 191.36 248.264 148.666 248.264 96.0001C248.264 43.3343 205.469 0.640137 152.679 0.640137C99.8892 0.640137 57.0944 43.3343 57.0944 96.0001C57.0944 148.666 99.8892 191.36 152.679 191.36Z" stroke="#574B4B" stroke-width="2"/>
<path d="M205.283 96.0001C205.283 122.423 199.377 146.312 189.861 163.574C180.332 180.858 167.273 191.36 153 191.36C138.727 191.36 125.668 180.858 116.139 163.574C106.623 146.312 100.717 122.423 100.717 96.0001C100.717 69.5771 106.623 45.6876 116.139 28.4263C125.668 11.142 138.727 0.640137 153 0.640137C167.273 0.640137 180.332 11.142 189.861 28.4263C199.377 45.6876 205.283 69.5771 205.283 96.0001Z" stroke="#574B4B" stroke-width="2"/>
<path d="M153 191.68V0.319824" stroke="#574B4B" stroke-width="2"/>
<path d="M75.6981 39.04H229.66" stroke="#574B4B" stroke-width="2"/>
<path d="M57.0944 96H248.906" stroke="#574B4B" stroke-width="2"/>
<path d="M75.6981 152.96H229.66" stroke="#574B4B" stroke-width="2"/>
</g>
<defs>
<clipPath id="clip0_2_157">
<rect width="306" height="192" fill="white"/>
</clipPath>
</defs>
</svg>
