<svg width="31" height="56" viewBox="0 0 31 56" fill="none" xmlns="http://www.w3.org/2000/svg">
<path d="M17.0612 1.42363C17.9443 1.44149 18.7159 1.8265 19.3913 2.55769C19.709 2.8985 20.2912 2.8985 20.6095 2.55769C21.2857 1.82697 22.0858 1.44194 22.8365 1.42632C23.8394 1.40845 24.8243 1.81625 25.4599 2.50544C26.6606 3.80609 26.8968 6.15598 25.1223 7.53793L19.9988 11.5172L14.8799 7.53793C13.1057 6.15906 13.3409 3.80976 14.5418 2.50544C15.1723 1.8167 16.1866 1.40531 17.0612 1.42363ZM17.0906 0.00107818C15.676 -0.0252746 14.2649 0.567434 13.3152 1.59743C11.5918 3.47289 11.3606 6.68173 13.8432 8.61266L19.0989 12.6995C19.6145 13.1002 20.3856 13.1002 20.9012 12.6995L26.1569 8.61266C28.6401 6.68173 28.4088 3.47301 26.681 1.59743C25.7362 0.567001 24.2964 -0.0288799 22.7992 0.00107818C21.7133 0.0189445 20.8104 0.382518 19.9909 1.07886C19.1616 0.382072 18.2406 0.0229636 17.0906 0.00107818Z" fill="white"/>
<path d="M25.5427 18.91C26.3602 19.6476 26.672 20.8456 25.4556 22.0255L12.3796 34.3912C11.6321 35.0766 12.7748 36.081 13.5223 35.4L18.5895 30.6033C19.0964 30.127 20.1292 30.213 20.9392 30.4548C21.9017 30.7378 22.7197 31.4744 23.0359 32.3567C23.3518 33.2387 23.1315 34.0864 22.5332 34.6297L17.5894 39.1291C16.8419 39.81 17.9832 40.8153 18.7307 40.1303L22.5496 36.6619C23.142 36.1186 24.0566 35.9252 25.0187 36.2084C25.9768 36.4914 26.7999 37.2351 27.1105 38.1175C27.4262 38.9986 27.2061 39.8436 26.6122 40.3842L22.7932 43.8598C22.0418 44.5417 23.178 45.5461 23.9266 44.8688L25.7517 43.2126C26.3041 42.7101 26.8564 42.5244 27.4834 42.681C28.3209 42.8891 29.0479 43.5656 29.2925 44.3331C29.5467 45.1185 29.3761 45.7959 28.9028 46.223L24.2703 50.4553C20.891 53.5402 19.4301 54.2808 16.4036 54.5375C12.9008 54.8353 9.06532 53.149 6.11389 50.4666C3.15899 47.7791 1.30319 44.2923 1.63095 41.0917C1.8636 38.8209 2.67314 36.9565 4.42434 35.3523L22.2549 19.0558C23.3556 18.0469 24.6711 18.1291 25.5427 18.91ZM13.6344 16.5401C13.9581 16.5585 14.3198 16.6509 14.7056 16.8197C16.7945 17.7173 17.5364 20.21 17.1467 21.6805L11.2859 27.0397C12.303 24.2302 12.2365 21.2148 12.1244 18.6023C12.0569 17.1273 12.6712 16.4886 13.6344 16.5401ZM13.6629 15.0146C12.7918 14.9365 11.8332 15.1666 11.2228 15.8363C10.6114 16.5065 10.3917 17.4804 10.5333 18.7431C10.9946 22.8298 10.3347 27.8723 6.77738 31.1421L3.28659 34.3513C1.26875 36.2048 0.302102 38.4522 0.0454224 40.9607C-0.341327 44.7342 1.77904 48.5606 4.9796 51.4702C8.17875 54.3841 12.3969 56.3117 16.5557 55.9583C19.8628 55.6787 21.9472 54.6183 25.413 51.4553L30.0489 47.2275C31.0506 46.3124 31.1782 44.898 30.8135 43.8815C30.3912 42.7099 29.4019 41.6972 27.8495 41.2918C28.8121 40.3395 29.0953 38.9654 28.6335 37.6775C28.1606 36.3484 26.9869 35.2839 25.5175 34.8523C25.1477 34.741 24.77 34.6921 24.3962 34.6737C24.8235 33.8363 24.8855 32.8547 24.5533 31.9172C24.0805 30.5881 22.9108 29.5275 21.4413 29.092C21.092 28.9883 20.7354 28.9318 20.3831 28.9062L26.6256 22.9992C28.3477 21.3291 28.0736 19.0844 26.6832 17.9087C24.9561 16.449 22.554 16.7321 21.113 18.0496L18.8386 20.13C18.7299 19.2661 18.3773 18.5332 17.9985 17.8404C17.158 16.3014 15.4142 15.174 13.6626 15.014L13.6629 15.0146Z" fill="white"/>
</svg>
